# xmcd
#
# Track frame offsets:
#	150
#	16200
#	33473
#	49116
#	62539
#	76855
#	94138
#	110265
#	125912
#	139721
#	155738
#	169139
#	185015
#	200362
#	222735
#	236195
#	251750
#	264850
#	288161
#	307279
#
# Disc length: 4294 seconds
#
# Revision: 0
# Processed by: cddbd v1.5.2PL0 Copyright (c) Steve Scherf et al.
# Submitted via: audiograbber 1.83.01
#
DISCID=2a10c414
DTITLE=João Bosco and Vinícius - Acústico pelo Brasil
DYEAR=2007
DGENRE=Sertanejo
TTITLE0=querendo te encontrar
TTITLE1=ex-amor - deixa eu chorar
TTITLE2=não dá pra continuar
TTITLE3=só fazendo amor
TTITLE4=não é mais como antes
TTITLE5=vou doar meu coração - part. Cesar Menotti e Fabiano
TTITLE6=coração idiota
TTITLE7=sofrendo por amor
TTITLE8=o fora
TTITLE9=vem me amar
TTITLE10=parece castigo
TTITLE11=mania de me enganar
TTITLE12=quero um beijo - part. Tradição
TTITLE13=preciso amar de novo - desejos
TTITLE14=ah é
TTITLE15=chora peito, chora
TTITLE16=tô fando, tá queimando - part. Juliano Cezar
TTITLE17=faz de conta que eu sou ele - o amor me pegou
TTITLE18=quero provar que te amo
TTITLE19=falando sério (bônus)
EXTD=
EXTT0=
EXTT1=
EXTT2=
EXTT3=
EXTT4=
EXTT5=
EXTT6=
EXTT7=
EXTT8=
EXTT9=
EXTT10=
EXTT11=
EXTT12=
EXTT13=
EXTT14=
EXTT15=
EXTT16=
EXTT17=
EXTT18=
EXTT19=
PLAYORDER=
